; NON-PLATED HOLES START AT T1
; THROUGH (PLATED) HOLES START AT T100
M48
INCH
T100C0.030000
T101C0.039370
T102C0.038000
T103C0.035000
T104C0.042000
T105C0.015748
T106C0.040000
%
T100
X000880Y015937
X001862Y037930
X000861Y037930
X001882Y015937
T101
X018122Y045923
X016122Y045923
X014122Y045923
X019122Y045923
X017122Y045923
X015122Y045923
X023122Y045923
X026122Y045923
X024122Y045923
X022122Y045923
X020122Y045923
X027122Y045923
X025122Y045923
X023122Y064923
X021122Y064923
X026122Y064923
X024122Y064923
X022122Y064923
X020122Y064923
X027122Y064923
X025122Y064923
X009538Y064923
X010538Y064923
X015538Y064923
X013538Y064923
X011538Y064923
X018538Y064923
X016538Y064923
X014538Y064923
X012538Y064923
X017538Y064923
X013122Y045923
T102
X014122Y020923
X004122Y042923
X017122Y042923
X014122Y019923
X021122Y020923
X011122Y042923
X015122Y020923
X021122Y019923
X005122Y042923
X015122Y019923
X020122Y041923
X022122Y020923
X012122Y042923
X018122Y041923
X002122Y064923
X022122Y019923
X010122Y020923
X006122Y041923
X019122Y041923
X010122Y019923
X008122Y020923
X008122Y019923
X013122Y041923
X020122Y042923
X007122Y041923
X018122Y042923
X009122Y020923
X002122Y065923
X009122Y019923
X014122Y041923
X003122Y020923
X016122Y020923
X006122Y042923
X003122Y019923
X019122Y042923
X016122Y019923
X021122Y041923
X015122Y041923
X013122Y042923
X004122Y020923
X017122Y020923
X007122Y042923
X004122Y019923
X017122Y019923
X022122Y041923
X011122Y020923
X014122Y042923
X011122Y019923
X010122Y041923
X021122Y042923
X012122Y020923
X008122Y041923
X015122Y042923
X012122Y019923
X022122Y042923
X009122Y041923
X003122Y041923
X020122Y020923
X010122Y042923
X016122Y041923
X005122Y020923
X020122Y019923
X018122Y020923
X008122Y042923
X005122Y019923
X018122Y019923
X004122Y041923
X017122Y041923
X006122Y020923
X019122Y020923
X009122Y042923
X006122Y019923
X011122Y041923
X019122Y019923
X005122Y041923
X013122Y020923
X003122Y042923
X016122Y042923
X007122Y020923
X013122Y019923
X007122Y019923
X012122Y041923
T103
X002122Y052923
X004122Y060923
X007122Y058923
X007122Y062923
X017122Y057923
X007122Y048923
X002122Y054923
X017122Y061923
X029192Y060923
X012122Y056923
X023122Y062923
X001122Y040923
X004122Y045923
X029192Y062923
X004122Y057923
X012122Y062923
X003122Y040923
X025243Y060801
X029192Y061923
T104
X027122Y057923
X030102Y057923
T105
X002122Y042923
T106
X020130Y055921
X003122Y052923
X030122Y050923
X032122Y050923
X008122Y052923
X006122Y052923
X004122Y052923
X020130Y053921
X007122Y052923
X005122Y052923
X020130Y051921
X030122Y051923
X032122Y051923
X020130Y054921
X003122Y056923
X020130Y052921
X030122Y054923
X032122Y054923
X004122Y056923
X006122Y056923
X008122Y056923
X005122Y056923
X007122Y056923
T00
M30
